<?xml version="1.0" encoding="utf-8"?>
<!-- Generator: Adobe Illustrator 22.0.1, SVG Export Plug-In . SVG Version: 6.00 Build 0)  -->
<svg version="1.1" id="Слой_1" xmlns="http://www.w3.org/2000/svg" xmlns:xlink="http://www.w3.org/1999/xlink" x="0px" y="0px"
	 viewBox="0 0 793.7 793.7" style="enable-background:new 0 0 793.7 793.7;" xml:space="preserve">
<g>
	<path d="M325.5,555.6c6.4,2.2,11.2,4.5,16.2,5.4c11.8,2,14.1,8.2,9.3,18.4c-1.1,2.4-1.4,5.3-1.1,9.3c11.1-20.9,31.4-20.1,50-23.4
		c81.6-14.7,160-39.8,237.3-69.5c23.4-9,48.9-14.6,73.8-17c28.5-2.7,49.6,14.7,58.7,43.1c-14.1,5.4-28.2,11.1-42.5,16.2
		c-75,26.8-149.8,53.9-225.1,79.9c-32.8,11.3-66.9,16.9-102,16.3c-35.9-0.6-71.8,1.7-107.6,0.6C252,633.7,218.7,647,191.2,677
		c-15.4,16.8-32.8,31.9-50.3,48.7c-31-34.1-62.6-68.9-95.4-105.1c9.9-10.3,19.1-20.3,28.7-29.9c15.9-15.9,29.5-32.8,39.6-53.7
		c25-51.7,78.7-75.8,141.4-65.6c20.9,3.4,41.4,9.5,62,14.6c45.7,11.4,91.6,11.1,137.8,3.3c15.9-2.7,32.4-3.3,48.5-2.8
		c15.5,0.5,24.9,9.6,29,23.4c2.4,8,1.2,12.7-7.8,16.1c-56.9,21.6-115.3,33.3-176.4,28.2c-6.2-0.5-12.5-0.5-18.8-0.6
		C328.9,553.6,328.2,554.2,325.5,555.6z"/>
	<path d="M421.7,197.5c-3.2,9.8-6.2,18.8-8.9,27.8c-3.7,12,0.1,21.5,9.7,25c9.7,3.5,18.6-1.6,23-13.4c2-5.4,3.8-10.8,8.5-16.5
		c2.3,6.3,4.6,12.6,7.1,18.9c4.7,12.1,13.3,17.2,22.8,13.7c9.6-3.6,13.6-13.2,10-24.8c-3.1-9.9-6.4-19.7-9.9-30.3
		c10.2-3.3,17.5-3.1,24.8,5.6c56.9,69.1,98.8,146.5,127.3,231.1c4.5,13.2,5.5,27.7,6.6,41.7c0.3,3.9-4.1,10.4-7.8,11.9
		c-29.8,11.8-60,22.8-91.2,34.4c-1.4-3.8-2.7-6.7-3.4-9.7c-5.3-21.6-16.9-33-39.1-33.8c-17.4-0.6-35.1,0.6-52.2,3.8
		c-54.8,10.1-108,3.7-160.8-11.8c-5.2-1.5-10.5-3.8-15.8-3.8c-15.1-0.1-15.5-8-12.1-19.6c14.8-51.2,36-99.8,63.4-145.3
		c20-33.1,43.8-63.9,65.4-96.2C397.4,193.8,408.2,194.5,421.7,197.5z M438.9,285.4c0.6,1,1.3,2,1.9,3c-3.9,5.5-6.7,12.9-12,16.1
		c-16.1,9.7-23.6,22.7-21.6,41.5c2,19.1,14.8,29.9,29.3,39.9c8.8,6.1,17.8,12.4,25.3,20.1c5.6,5.7,4.6,14-2.4,18.6
		c-7.1,4.7-17.7,5.5-20.8-2.9c-5.5-14.8-16.3-10.9-26.4-11.4c-6.8-0.3-8.7,3-7.8,9.3c2.3,15.5,9.7,27,24.2,34.1
		c3.9,1.9,8.1,7.2,8.5,11.4c1.2,10.4,8.3,7.3,13.9,7.6c5.7,0.3,11.5,1.3,12.4-7.9c0.4-4.1,4.6-9.5,8.4-11.4
		c16.9-8.4,24.7-21.7,24.5-40.2c-0.2-21.4-13.3-34.1-29.7-44.7c-8.4-5.4-17.1-10.5-24.5-17.2c-5.8-5.2-7.1-13.3,0.3-18.3
		c6.9-4.7,14.3-3.7,19.2,4.5c1.6,2.6,3.7,7.1,5.6,7.1c8.5,0.1,17-1,25.5-1.7c-1.7-7.9-2.3-16.4-5.6-23.5c-2.4-5.2-7.9-10-13.2-12.7
		c-6.8-3.6-12.2-6.5-11.5-15.4c0.1-1.7-3.9-5.1-6.3-5.5C450.5,284.8,444.7,285.4,438.9,285.4z"/>
	<path d="M408,98.5c-5.8-22.1-2.5-28.8,19.1-32.1c14.6-2.2,30-2.3,44.6-0.3c22.2,3.1,25.9,10,20.8,31.1c0.8,0.6,1.7,1.8,2.7,2
		c24.8,4.7,26.5,8.2,14.9,31.1c-3.4,6.7-7.1,13.2-10.8,19.7c-7.4,12.9-18.4,14.7-30.6,5.3c-12.4-9.6-25.2-9.5-37.7,0.3
		c-11.7,9.2-23.3,7.1-30.5-5.8c-5.1-9.1-10.2-18.2-14.4-27.7c-6-13.4-2.8-19.1,11.5-21.9C400.7,99.5,404,99.1,408,98.5z"/>
	<path d="M471.3,176.6c0.2,11.9-9.1,21.4-21.1,21.4c-12.3,0.1-21.3-8.8-21.5-21c-0.1-11.9,9.2-21.6,21-21.8
		C461.3,155.1,471.1,164.8,471.3,176.6z"/>
	<path d="M475.7,195.7c4,12.2,8.9,24.1,11.6,36.6c0.9,4-4,9.3-6.2,14c-4.2-2.4-10.5-3.8-12.3-7.4c-4.4-8.8-8.9-18.6-9.1-28.1
		c-0.1-5.6,7.9-11.3,12.3-17C473.2,194.4,474.4,195,475.7,195.7z"/>
	<path d="M448,207.2c-3.3,10-5.7,20.1-10.1,29.2c-1.8,3.6-8.1,4.9-12.4,7.3c-2.3-4.3-7.1-9.1-6.4-12.8c2.1-10.8,6.4-21.1,10.1-32.2
		C435.9,201.7,441.4,204.2,448,207.2z"/>
	<path d="M421.3,165.4c0,9.7,0,15.8,0,25.2c-9.1-2.2-17.5-3.7-25.4-6.7c-1.4-0.5-1.6-10.1-0.4-10.7
		C403.3,170,411.7,168.2,421.3,165.4z"/>
	<path d="M477.6,190.7c0.5-9.6,0.8-15.3,1.3-24.5c9,2.1,17.4,3.6,25.2,6.5c1.4,0.5,1.5,10.3,0.4,10.8
		C496.3,186.5,487.6,188.2,477.6,190.7z"/>
</g>
</svg>
