<?xml version="1.0" encoding="utf-8"?>
<!-- Generator: Adobe Illustrator 22.0.1, SVG Export Plug-In . SVG Version: 6.00 Build 0)  -->
<svg version="1.1" id="Слой_1" xmlns="http://www.w3.org/2000/svg" xmlns:xlink="http://www.w3.org/1999/xlink" x="0px" y="0px"
	 viewBox="0 0 793.7 793.7" style="enable-background:new 0 0 793.7 793.7;" xml:space="preserve">
<g>
	<path d="M56.3,339.5c-7.4-0.8-14.8-2-22.3-2.2C21.7,337,13.1,332.1,13,319c-0.1-13,8.4-18.6,20.7-18.8c10.5-0.2,22.9-3.3,31.1,1.1
		c7.2,3.9,9.7,16.5,14.4,25.2c1.5,2.7,3.2,5.2,6.4,10.3c3.8-7.2,6.9-12.4,9.4-17.8c15.1-31.9,30.4-63.8,45.1-95.9
		c7.1-15.6,18.5-23.4,35.6-24.3c112.3-6.5,224.6-6.5,336.9,0c14.8,0.9,26.6,6.1,33.3,20.1c18.3,38.5,36.6,77.1,55.6,117.3
		c-4.7,1.2-8.5,2.5-12.3,3c-65.4,8.1-112.7,42-141.1,101.2c-5.5,11.4-11.7,14.9-23.9,14.8c-59.1-0.6-118.2-0.3-177.3-0.3
		c-22.4,0-25.9,3.3-30.2,25.5c-4.4,22.8-9.2,45.5-13.8,68.2c-4,20.2,1.7,27.6,22.2,27.6c67.5,0.1,135.1,0.4,202.6-0.2
		c13.9-0.1,20.5,4.8,21.7,20.7c-7.1,0-13.7,0-20.3,0c-94.4,0-188.9,0.1-283.3-0.1c-10.4,0-18.6,0.2-18.8,14.4
		c0,3.4-8.2,9.5-12.8,9.7c-24.8,1-49.6,0.3-74.4,0.5c-10.2,0.1-13.7-5.1-13.8-14.8c-0.8-67.5-2.2-135-2.7-202.6
		c-0.2-20.5,8.5-37.8,24.4-51.1c3.1-2.6,6.1-5.4,9.2-8.2C56.8,342.9,56.6,341.2,56.3,339.5z M345.3,336.5
		C345.3,336.5,345.3,336.5,345.3,336.5c72.8-0.1,145.5-0.1,218.3-0.1c20.1,0,22.3-3.2,13.8-22.1c-11.5-25.5-23.8-50.5-34.7-76.2
		c-4.9-11.5-12.1-15.7-24.1-15.9c-45.3-1-90.6-3.8-135.9-3.6c-71.2,0.3-142.3,2.5-213.5,3.8c-10.2,0.2-17.7,2.8-22.3,13.6
		c-11.6,27.1-24.7,53.6-36.8,80.5c-7.3,16.2-4.3,20.1,13.8,20.1C197.7,336.5,271.5,336.5,345.3,336.5z M108.5,442.3
		c0-0.1,0-0.2,0-0.4c-14.7-0.7-29.4-0.9-44.1-2.2c-12.4-1.2-17.7,3.6-16.8,15.9c0.4,5.2-1.5,11.3,0.6,15.6
		c2.4,5.1,7.6,12.2,12.2,12.6c33,2.9,66,4.2,99.1,6.3c9.5,0.6,13.5-3.8,13.5-12.9c0-5.3-0.2-10.5,0.1-15.8
		c0.8-11.4-4.6-16-15.8-16.3C141,444.6,124.8,443.2,108.5,442.3z M175,576.4c-7.1-16.4-17.4-20.6-29.4-21.5
		c-23.1-1.8-46.2-3.6-69.3-4.3c-4.7-0.1-13.8,5.3-13.5,6.8c1.4,7.9-0.1,19.2,13.6,19c13.7-0.2,27.4,0,41.1,0
		C135.6,576.4,153.8,576.4,175,576.4z"/>
	<path d="M606.3,361.2c85.1-0.1,153.1,67.8,152.9,152.7c-0.2,84.1-67.7,151.8-151.9,152.2c-84.5,0.4-153.2-68.3-153-152.8
		C454.6,429.1,522.3,361.3,606.3,361.2z M549.6,487c-11.3,10.7-21.1,19.9-32.1,30.2c25.8,24.1,49.8,46.5,74.8,69.9
		c39.6-37.2,77.8-73,118.5-111.2c-8.5-7.2-16-12.2-21.8-18.8c-8.4-9.6-14.6-8.4-23.1,0.1c-19.8,19.6-41.2,37.7-60.6,57.7
		c-10.5,10.9-17.4,9.5-26.6-0.6C570.1,505,560.4,497,549.6,487z"/>
	<path d="M603.1,339.5c3-7.2,4.2-10,5.4-12.9c3.5-8.5,5.3-22.6,10.9-24.3c12.5-3.8,27.2-3.2,40.3-0.8c5.9,1.1,14,10.8,14.2,16.8
		c0.2,5.9-7.6,16.4-13.3,17.4C643,338.8,624.7,338.4,603.1,339.5z"/>
	<path d="M339.5,242.9c-12.1,0-24.3,0.7-36.3-0.4c-3.8-0.4-7.1-5.7-10.6-8.8c3.6-2.4,7.1-6.8,10.7-6.9c24.7-0.6,49.5-0.6,74.2,0
		c3.6,0.1,7,4.6,10.5,7.1c-3.6,3-6.9,8.2-10.8,8.5c-12.5,1.1-25.2,0.4-37.9,0.4C339.5,242.8,339.5,242.8,339.5,242.9z"/>
</g>
</svg>
