<?xml version="1.0" encoding="utf-8"?>
<!-- Generator: Adobe Illustrator 22.0.1, SVG Export Plug-In . SVG Version: 6.00 Build 0)  -->
<svg version="1.1" id="Слой_1" xmlns="http://www.w3.org/2000/svg" xmlns:xlink="http://www.w3.org/1999/xlink" x="0px" y="0px"
	 viewBox="0 0 793.7 793.7" style="enable-background:new 0 0 793.7 793.7;" xml:space="preserve">
<g>
	<path d="M733.4,352.4c25.7,36,23.5,75.6,23.8,114.7c0.2,26.4-0.2,52.9,0.1,79.3c0.2,11.9-4.4,17.5-16.7,17.1
		c-11.8-0.5-23.6-0.4-35.4,0c-12,0.4-17.1-4.6-16.7-16.8c0.7-22,2.1-21.3-21.6-21.3c-83.1,0-166.1-0.2-249.2,0.1
		c-10.2,0-17.6-2.2-24-10.9c-13.4-18.2-33.5-27.2-54.2-34.3c-10.6-3.7-14-9.5-13.9-20.8c0.4-54.8,0.2-55.3,22-106.8
		c-5.4-2.2-10.7-4.5-16.2-6.5c-8.6-3-13.7-8.5-12.4-18c1.3-9.7,7.1-15.1,17-15.7c1.4-0.1,2.9-0.4,4.2-0.1c27.2,6,43.4-6.9,53.6-30.8
		c2.2-5.1,5.9-9.7,8.8-14.5c13.5-22.6,33.8-33.6,59.9-33.7c51.9-0.2,103.8-0.1,155.7-0.1c27.8,0,49,11.3,63.1,35.7
		c5.7,9.8,12.9,18.8,17.7,28.9c5.8,12.2,14.6,15.8,27.3,14.5c7.5-0.8,15.8-1.8,22.4,0.8c5.9,2.3,11.9,8.7,14.2,14.7
		c3,7.8-1.5,14.6-10,17.5C747.4,347.3,741.7,349.4,733.4,352.4z M540.5,352.6c48.6,0,97.1,0.1,145.7,0c16.9,0,20-5.2,11.4-19.4
		c-11.7-19.3-23.8-38.5-35.8-57.7c-9.3-14.7-22.7-22-40.2-22c-53.3,0.1-106.6,0.1-159.9,0c-18.7,0-32.3,8.2-41.9,24.1
		c-11,18.2-22.6,35.9-33.3,54.2c-2.8,4.8-5.2,11.7-3.7,16.4c0.9,2.8,9.7,4.2,14.9,4.3C445.2,352.7,492.9,352.6,540.5,352.6z
		 M541.6,472.2c-16,0-32,0.4-48-0.1c-10-0.3-13.3,4.5-13.3,13.6c0,9.1,3.1,14.2,13.1,14.1c32-0.2,64-0.2,96,0
		c9.6,0.1,13.5-4.4,13.4-13.8c-0.1-9.1-3.1-14.1-13.2-13.9C573.6,472.5,557.6,472.2,541.6,472.2z M685.8,443.3c0,0.3,0,0.7,0,1
		c8.4-0.4,17,0,25.2-1.5c13.6-2.5,21.9-15.3,19.4-28.2c-2.6-13.6-15.8-23.3-29.3-19.6c-14.4,3.9-28.9,8.7-42.2,15.4
		c-5.1,2.6-10.1,12.2-9.4,17.7c0.8,5.6,8,12.3,13.9,14.5C670.1,445.3,678.3,443.3,685.8,443.3z M396.7,444.3c0-0.2,0-0.4,0-0.6
		c7,0,14.9,1.9,20.9-0.5c6.5-2.6,14.9-8.8,15.8-14.5c1-5.6-4.8-15.6-10.3-18.5c-12.7-6.7-26.9-11.1-40.9-15
		c-13.5-3.8-26.9,5.5-29.6,19.1c-2.7,13.5,5.9,26.6,20.1,28.9C380.6,444.3,388.7,443.9,396.7,444.3z"/>
	<path d="M396.6,589.1c-127.2,0-253.5,0-379.7,0c-8-35,9.8-70,43.4-84.8c24.6-10.8,49.5-20.9,74.3-31.4c21.2-9,25.3-18.7,16-39.9
		c-6.3-14.4-15.3-27.8-20-42.7c-3.8-12-3.2-25.4-4.2-38.2c-0.4-5.5,0.5-11.1,0.4-16.6c-0.2-13.2-4.1-27.4-0.5-39.3
		c11.1-36.1,42.9-77.3,92.7-62.9c47.2,13.6,76.1,40.8,67.5,99.4c-1.1,7.6,0.4,15.6,1.1,23.3c1.5,15.5-2.2,28.8-10.5,42.6
		c-9.2,15.3-15.6,33-19.6,50.4c-2.7,11.8,8.2,19,18.8,23.4c22.6,9.5,45.2,19,67.8,28.5C384.3,517.9,399.4,542.7,396.6,589.1z"/>
</g>
</svg>
