<?xml version="1.0" encoding="utf-8"?>
<!-- Generator: Adobe Illustrator 22.0.1, SVG Export Plug-In . SVG Version: 6.00 Build 0)  -->
<svg version="1.1" id="Слой_1" xmlns="http://www.w3.org/2000/svg" xmlns:xlink="http://www.w3.org/1999/xlink" x="0px" y="0px"
	 viewBox="0 0 793.7 793.7" style="enable-background:new 0 0 793.7 793.7;" xml:space="preserve">
<g>
	<path d="M339.7,521.9c1.5-12.7,3.1-22.5,3.6-32.4c0.3-7,3.2-8.9,9.9-9c23.5-0.5,23.4-0.7,26.6,22.7c0.8,5.6,1.7,11.2,3,19.8
		c3.5-4.9,5.7-7.8,7.5-10.8c25.1-40.4,50.1-80.8,75.1-121.3c3.1-5,5.7-9.4,13.2-7.9C550,396.8,603.5,433,627.9,504.1
		c5.7,16.7,6.8,35,10.3,52.5c1.3,6.8-3.1,8.8-8.1,10.4c-36.8,11.4-73,25.8-110.5,33.5C392,626.7,265.1,622.8,140,584.3
		c-16.4-5-32.3-11.6-48.1-18c-2.9-1.2-7-5.4-6.8-7.7c4-33.1,8.9-65.9,28.5-94.4c31.7-45.9,75.9-71.3,130-81.3
		c7.1-1.3,10.3,1.6,13.7,7c25.3,41.1,50.8,82.1,76.2,123.1C334.9,515.2,336.3,517.2,339.7,521.9z M555.7,439.1
		c-0.7-1.2-1.5-4.1-3.3-5.2c-14.9-8.3-29.7-16.8-45.2-23.7c-2.7-1.2-10.1,3.9-12.6,7.8c-1.5,2.4,0.9,10.2,3.7,12
		c13,8,26.6,15.1,40.3,21.9C546.1,455.7,555.8,448.7,555.7,439.1z M220.3,408.9c-3.7,0.7-4.8,0.7-5.7,1.2
		c-14.4,7.7-29.1,15-42.9,23.6c-2.3,1.4-2.7,8.9-1.4,12.7c2,5.8,7.2,9.2,13.7,5.9c13.9-7.1,27.9-14.2,41.2-22.3
		c2.7-1.7,4.9-8.2,3.8-11.3C227.5,414.5,222.7,411.4,220.3,408.9z"/>
	<path d="M219.8,255.2c3.2-12.2,3.2-23.6,13-32.3c4.3-3.8-1.1-19.8-8.4-26.3c-7.7-6.9-15.9-13.3-23.7-20.1
		c-12.9-11.4-11.8-26.2,3.2-34.1c49-26,97.9-51.9,147.4-77c5.7-2.9,15.3-2.7,21,0.2c49.4,25.1,98.4,51,147.3,77
		c14.5,7.7,15.8,22.4,3.5,33.4c-6.1,5.5-13.4,9.9-18.7,16c-6.1,7-11.1,15.2-15.6,23.4c-1,1.9,1.2,6.7,3.3,9
		c15.1,17.6,10.9,58.5-7.5,73c-2.5,2-3.7,5.8-5.3,8.8c-9.2,17.3-16.1,36.3-27.8,51.6c-50.2,65.9-132.1,64.9-181.5-1.6
		c-8.2-11.1-14.4-23.8-20.7-36.2c-5-9.8-8.7-19.6-16.7-28.6C224.7,282.7,223.8,267.6,219.8,255.2z M242,212.7
		c2.2,5.2,2.9,9.2,5.1,12c8.9,10.6,16.9,22.6,27.6,30.9c33.5,26,72.5,33.3,113.7,26.1c35.8-6.3,66.2-22.6,86.2-54.5
		c2.4-3.9,3.7-8.5,6.2-14.5C400.2,229.5,322.2,229.3,242,212.7z M361.7,112.6c-8.4,3.1-17.1,6-25.4,9.5c-2.4,1-5.7,3.9-5.8,6
		c-0.2,11-0.6,22.2,1.1,33c2.2,13.9,22.4,29.9,32.7,27.5c13.8-3.2,27.9-19.5,28.7-34c0.5-8.2,0.8-16.5-0.2-24.5
		c-0.3-3-3.9-6.7-6.9-8.1C378.1,118.3,369.8,115.6,361.7,112.6z"/>
	<path d="M361.1,468.3c-26.1,0.2-23.7,1-23.7-23.6c0-21.7,0-21.8,23.5-21.7c26.1,0.1,25.5-3.7,25.4,25.2
		C386.2,468.3,386.3,468.3,361.1,468.3z"/>
</g>
</svg>
