<svg id="Capa_1" enable-background="new 0 0 512 512" height="512" viewBox="0 0 512 512" width="512" xmlns="http://www.w3.org/2000/svg"><g><path d="m377.584 214.287v-28.957c-5.836-2.719-11.071-6.512-15.457-11.124-4.151 4.365-9.06 8.001-14.522 10.683v29.331c4.821-.571 9.723-.873 14.696-.873 5.173-.001 10.273.322 15.283.94z"/><path d="m329.8 411.341 96.897-19.736.3-.054c4.838-.88 9.761-1.34 14.654-1.407 10.186-15.372 15.838-33.587 15.838-52.573 0-52.488-42.701-95.189-95.189-95.189s-95.189 42.702-95.189 95.189c0 4.583.328 9.114.964 13.582l30.77 13.006c19.429 8.064 31.201 27.204 30.955 47.182zm.15-95.57c0-12.005 8.711-22.097 26.133-24.54v-11.58h14.978v11.367c7.862.744 15.511 2.763 21.566 6.162l-7.543 18.166c-7.33-3.718-14.235-5.524-20.716-5.524-7.33 0-9.667 2.125-9.667 4.674 0 8.923 41.113 1.487 41.113 28.896 0 11.473-8.286 21.46-24.753 24.328v11.792h-14.978v-11.262c-10.623-.637-20.928-3.505-27.302-7.436l8.074-18.272c7.011 4.144 16.36 6.799 24.539 6.799 7.118 0 9.667-1.487 9.667-4.037.001-9.349-41.111-1.806-41.111-29.533z"/><path d="m432.193 420.117-107.839 21.964c-5.511 7.513-12.902 13.549-21.465 17.297-12.974 5.68-27.283 5.851-40.216.511l-93.562-38.072 12.07-29.664 90.443 38.066c10.914 4.422 23.34-.895 27.679-11.843 4.276-10.792-.918-23.016-11.655-27.428l-118.495-50.088c-22.056-9.107-46.399-8.23-67.853 2.228-2.3 1.122-90.324 46.476-90.324 46.476v122.436l114.538-58.718 149.796 58.374 225.709-43.881c.002-.004.004-.006.006-.009-5.85-32.166-36.667-53.498-68.832-47.649z"/><path d="m399.02 161.041c12.098 0 21.904-9.807 21.904-21.904v-82.323c0-27.2-18.572-50.129-43.696-56.814-.05.039-.062.047-.112.086v139.051c0 12.097 9.807 21.904 21.904 21.904z"/><path d="m251.313 161.041c12.059 0 21.835-9.776 21.835-21.835l.145-82.392c0-9.533 1.515-18.717 4.308-27.331-28.686 24.039-46.887 60.369-48.092 101.176l-.03.001v8.546c0 12.059 9.775 21.835 21.834 21.835z"/><path d="m303.33 56.814v82.323c0 12.097 9.807 21.904 21.904 21.904s21.904-9.807 21.904-21.904v-139.041c-.055-.042-.066-.051-.121-.093-25.12 6.688-43.687 29.615-43.687 56.811z"/><path d="m451 139.206c0 12.059 9.776 21.835 21.835 21.835s21.835-9.776 21.835-21.835v-10.462l-.089.004c-1.31-34.227-11.859-66.17-36.347-90.343-3.87-3.821-7.934-7.376-12.164-10.667 3.166 9.114 4.892 18.897 4.892 29.075z"/></g></svg>